<svg xmlns="http://www.w3.org/2000/svg" viewBox="0 0 64 64"><g id="_02-bomb" data-name="02-bomb"><path d="M43.63,7.777l1.5-2.63a4.013,4.013,0,0,1,4.61-1.9l2.7.79a3.016,3.016,0,0,0,3.46-1.42l.33-.59a2,2,0,0,1,2.76-.75A2.042,2.042,0,0,1,60,3.057a2.142,2.142,0,0,1-.27,1.03l-.27.47a7.01,7.01,0,0,1-8.07,3.33l-1.94-.57a1.015,1.015,0,0,0-1.16.48l-1.16,2.04-.97,1.72a.994.994,0,0,1-1.38.37l-1.75-1.02a1.049,1.049,0,0,1-.37-1.41Z" style="fill:#574a47"/><path d="M42.66,9.5a1.049,1.049,0,0,0,.37,1.41l1.75,1.02a.994.994,0,0,0,1.38-.37l.97-1.72c3.35,2.33,5.37,4.94,4.65,6.211-.83,1.48-5.04.6-9.39-1.961s-7.19-5.82-6.36-7.3c.73-1.28,3.94-.8,7.6.99Z" style="fill:#fff6f7"/><path d="M51.78,16.048l-2.21,3.9-1.83,3.23c-.84,1.48-5.04.6-9.39-1.96s-7.19-5.821-6.36-7.3l1.42-2.51,2.62-4.62c-.83,1.48,2.01,4.75,6.36,7.3S50.95,17.528,51.78,16.048Z" style="fill:#a19c9c"/><path d="M43.89,36.479a3.349,3.349,0,1,1-6.47,1.73l-4.32,1.16,1.16,4.31a3.349,3.349,0,1,1-1.88,5.13l-.4.1a3.343,3.343,0,1,1-4.19-3.49L26.63,41.1l-4.31,1.16a3.349,3.349,0,1,1-5.13-1.88l-.1-.4a3.343,3.343,0,1,1,3.49-4.19l4.32-1.161-1.16-4.31a3.349,3.349,0,1,1,1.88-5.13l.4-.1a3.343,3.343,0,1,1,4.19,3.49l1.16,4.32,4.31-1.16a3.349,3.349,0,1,1,5.13,1.88l.1.4A3.345,3.345,0,0,1,43.89,36.479Z" style="fill:#fff6f7"/><path d="M31.99,13.917c-.83,1.48,2.01,4.751,6.36,7.3s8.55,3.44,9.39,1.96l1.83-3.23.1.05A26,26,0,1,1,30,11a27.007,27.007,0,0,1,3,.17l.41.24Zm9.53,26.662a3.341,3.341,0,0,0-.61-6.561l-.1-.4a3.343,3.343,0,1,0-5.13-1.88L31.37,32.9l-1.16-4.32a3.349,3.349,0,1,0-4.19-3.49l-.4.1a3.343,3.343,0,1,0-1.88,5.13l1.16,4.31-4.32,1.161a3.349,3.349,0,1,0-3.49,4.19l.1.4a3.343,3.343,0,1,0,5.13,1.88l4.31-1.16,1.16,4.32a3.349,3.349,0,1,0,4.19,3.49l.4-.1a3.343,3.343,0,1,0,1.88-5.13l-1.16-4.31,4.32-1.16A3.339,3.339,0,0,0,41.52,40.579Z" style="fill:#332a27"/><path d="M51.621,22.6A26,26,0,0,1,4.388,41.456,26,26,0,1,0,51.621,22.6Z" style="fill:#1e1613"/><path d="M40.91,34.018l-.1-.4a3.343,3.343,0,1,0-5.13-1.88L31.37,32.9l-1.16-4.32a3.349,3.349,0,1,0-4.19-3.49l-.4.1a3.343,3.343,0,1,0-1.88,5.13l1.16,4.31-4.32,1.161a3.349,3.349,0,1,0-3.49,4.19l.1.4a3.343,3.343,0,1,0,5.13,1.88l4.31-1.16,1.16,4.32a3.349,3.349,0,1,0,4.19,3.49l.4-.1a3.343,3.343,0,1,0,1.88-5.13l-1.16-4.31,4.32-1.16a3.349,3.349,0,1,0,3.49-4.191Zm.351,5.595a2.342,2.342,0,0,1-1.79-.237,2.309,2.309,0,0,1-1.084-1.421l-.255-.973-6.257,1.681,1.679,6.242.967-.26a2.346,2.346,0,0,1,2.873,1.663A2.34,2.34,0,0,1,33.2,48.241l-.394-.57-1.769.443-.057.716a2.326,2.326,0,0,1-1.717,2.092,2.364,2.364,0,0,1-2.88-1.662,2.341,2.341,0,0,1,1.658-2.874l.973-.255-1.681-6.258-6.242,1.68.26.966A2.351,2.351,0,0,1,17.91,45.16a2.338,2.338,0,0,1-.152-3.958l.57-.394-.442-1.768-.717-.058a2.328,2.328,0,0,1-2.092-1.717,2.367,2.367,0,0,1,1.662-2.881,2.334,2.334,0,0,1,1.79.237,2.309,2.309,0,0,1,1.084,1.421l.255.973,6.257-1.681-1.679-6.242-.966.261a2.348,2.348,0,0,1-2.874-1.664A2.34,2.34,0,0,1,24.8,25.756l.394.57,1.769-.443.057-.716a2.327,2.327,0,0,1,1.717-2.092,2.365,2.365,0,0,1,2.88,1.662,2.341,2.341,0,0,1-1.658,2.874l-.973.255,1.681,6.258,6.242-1.68-.26-.966A2.348,2.348,0,0,1,38.309,28.6,2.341,2.341,0,0,1,40.242,32.8l-.57.393.443,1.769.716.058a2.329,2.329,0,0,1,2.093,1.719A2.368,2.368,0,0,1,41.261,39.613Z" style="fill:#1e1613"/><path d="M15.278,17.858a10.821,10.821,0,0,0-2,2.343,7.683,7.683,0,0,0-1.14,2.167,2.454,2.454,0,0,0-.084,1.276,1.679,1.679,0,0,0,.376.686,2.015,2.015,0,0,0,1.889.638,5.6,5.6,0,0,0,1.9-.836A14.637,14.637,0,0,0,18.854,22.2,3.252,3.252,0,0,0,20,19.949a3.38,3.38,0,0,0-.692-1.933C18.257,16.5,16.508,16.877,15.278,17.858Z" style="fill:#ede4e5"/><path d="M20.645,15.832a1.763,1.763,0,0,0-.53,1.952A2.24,2.24,0,0,0,22.094,19a4.211,4.211,0,0,0,1.583-.318,7.154,7.154,0,0,0,1.581-.785,1.856,1.856,0,0,0,.659-.686,1.288,1.288,0,0,0-.666-1.539A3.9,3.9,0,0,0,20.645,15.832Z" style="fill:#ede4e5"/><path d="M47.346,16.308l-.662,1.324a3.991,3.991,0,0,1-5.344,1.8c-2.746-1.368-6.4-3.636-8.625-6.8l-.725,1.281c-.83,1.48,2.01,4.751,6.36,7.3s8.55,3.44,9.39,1.96l1.83-3.23,2.21-3.9C51.283,16.934,49.57,16.968,47.346,16.308Z" style="fill:#878383"/><path d="M47.13,9.837l-.97,1.72a.994.994,0,0,1-1.38.37l-1.75-1.02a1.043,1.043,0,0,1-.478-1.084l-.095.172a3,3,0,0,0-.154,2.066l.674,2.359c4.135,2.3,8.01,3.041,8.8,1.627C52.5,14.777,50.48,12.167,47.13,9.837Z" style="fill:#ded5d6"/><path d="M59.4,1.6,56.769,4.231a5,5,0,0,1-4.245,1.415l-2.552-.364a3,3,0,0,0-3,1.426l-1.022,1.7a2,2,0,0,1-2.61.76l-.39-.2-.293.52a1.049,1.049,0,0,0,.37,1.41l1.75,1.02a.994.994,0,0,0,1.38-.37l.97-1.72L48.29,7.8a1.015,1.015,0,0,1,1.16-.48l1.94.57a7.01,7.01,0,0,0,8.07-3.33l.27-.47A2.142,2.142,0,0,0,60,3.057,2.054,2.054,0,0,0,59.4,1.6Z" style="fill:#1e1613"/></g></svg>